<mxfile host="app.diagrams.net" modified="2024-04-24T22:31:14.066Z" agent="Mozilla/5.0 (Windows NT 10.0; Win64; x64) AppleWebKit/537.36 (KHTML, like Gecko) Chrome/124.0.0.0 Safari/537.36" version="24.2.5" etag="_bAEH266Noot0a7KfvJX" type="github">
  <diagram name="Page-1" id="_6pJNJo3M6UCELkx7CFU">
    <mxGraphModel>
      <root>
        <mxCell id="0" />
        <mxCell id="1" parent="0" />
      </root>
    </mxGraphModel>
  </diagram>
</mxfile>
